<svg width="16" height="16" viewBox="0 0 16 16" fill="none" xmlns="http://www.w3.org/2000/svg">
<path d="M4.00001 1.33325H5.39468L3.99601 5.33325H1.58801L3.40401 1.70125C3.45943 1.59066 3.54453 1.49766 3.64979 1.43267C3.75504 1.36768 3.87631 1.33326 4.00001 1.33325ZM1.63601 6.66659L5.65468 12.9159L3.96001 6.66659H1.63601ZM5.34135 6.66659L7.38135 14.1933C7.4175 14.3298 7.49778 14.4505 7.60968 14.5366C7.72158 14.6227 7.85881 14.6694 8.00001 14.6694C8.14122 14.6694 8.27845 14.6227 8.39035 14.5366C8.50225 14.4505 8.58253 14.3298 8.61868 14.1933L10.664 6.66659H5.34135ZM12.0453 6.66659L10.3467 12.9133L14.364 6.66659H12.0453ZM14.412 5.33325H12.008L10.608 1.33325H12C12.1239 1.33301 12.2455 1.36732 12.351 1.43232C12.4565 1.49733 12.5418 1.59045 12.5973 1.70125L14.412 5.33325ZM10.596 5.33325H5.40935L6.80668 1.33325H9.19335L10.596 5.33325Z" fill="black"/>
</svg>
