<svg width="12" height="12" viewBox="0 0 12 12" fill="none" xmlns="http://www.w3.org/2000/svg">
<g clip-path="url(#clip0_0_178)">
<path d="M6.42 0.224984C6.37467 0.15481 6.31248 0.097112 6.23912 0.0571604C6.16575 0.0172087 6.08354 -0.00372314 6 -0.00372314C5.91646 -0.00372314 5.83425 0.0172087 5.76088 0.0571604C5.68752 0.097112 5.62533 0.15481 5.58 0.224984C5.545 0.279984 2 5.86498 2 7.99998C2 9.06085 2.42143 10.0783 3.17157 10.8284C3.92172 11.5786 4.93913 12 6 12C7.06087 12 8.07828 11.5786 8.82843 10.8284C9.57857 10.0783 10 9.06085 10 7.99998C10 5.86998 6.455 0.279984 6.42 0.224984ZM6 10.62C5.30508 10.6187 4.63892 10.3424 4.14706 9.85145C3.65521 9.36053 3.37764 8.6949 3.375 7.99998C3.375 7.90053 3.41451 7.80514 3.48483 7.73482C3.55516 7.66449 3.65054 7.62498 3.75 7.62498C3.84946 7.62498 3.94484 7.66449 4.01516 7.73482C4.08549 7.80514 4.125 7.90053 4.125 7.99998C4.12764 8.49599 4.32619 8.97086 4.67739 9.32112C5.02859 9.67139 5.50399 9.86867 6 9.86998C6.09946 9.86998 6.19484 9.90949 6.26516 9.97982C6.33549 10.0501 6.375 10.1455 6.375 10.245C6.375 10.3444 6.33549 10.4398 6.26516 10.5101C6.19484 10.5805 6.09946 10.62 6 10.62Z" fill="white"/>
</g>
<defs>
<clipPath id="clip0_0_178">
<rect width="12" height="12" fill="white"/>
</clipPath>
</defs>
</svg>
